<svg width="295" height="32" viewBox="0 0 295 32" fill="none" xmlns="http://www.w3.org/2000/svg">
<path d="M0 31.9988V18.2828L4.572 13.7148H18.284L0 31.9988Z" fill="url(#paint0_linear_1331_2822)"/>
<path d="M0 18.284V0H18.284L0 18.284Z" fill="url(#paint1_linear_1331_2822)"/>
<path d="M0 18.2828V22.8548L9.14401 13.7148H4.572L0 18.2828Z" fill="url(#paint2_linear_1331_2822)"/>
<path d="M34.9269 11.6159H29.7139V9.14844H42.7525V11.6159H37.5395V22.8604H34.9229V11.6159H34.9269Z" fill="#DDE1F1"/>
<path d="M53.3838 16.0033C53.3838 11.8868 56.2544 8.87109 60.1571 8.87109C64.0599 8.87109 66.9305 11.8868 66.9305 16.0033C66.9305 20.1197 64.0599 23.1354 60.1571 23.1354C56.2544 23.1354 53.3838 20.1156 53.3838 16.0033ZM64.209 16.0033C64.209 13.3867 62.4996 11.4675 60.1571 11.4675C57.8147 11.4675 56.1294 13.3867 56.1294 16.0033C56.1294 18.6199 57.8147 20.5188 60.1571 20.5188C62.4996 20.5188 64.209 18.5997 64.209 16.0033Z" fill="#DDE1F1"/>
<path d="M79.3936 9.14453H88.7835C91.126 9.14453 92.6862 10.7895 92.6862 13.2569C92.6862 15.4502 91.3154 16.9903 89.2673 17.204L92.6862 22.8605H89.731L86.4411 17.2282H82.0102V22.8605H79.3936V9.14453ZM88.7835 14.7567C89.5616 14.7567 90.0696 14.2084 90.0696 13.3859V12.9868C90.0696 12.1643 89.5616 11.616 88.7835 11.616H82.0102V14.7567H88.7835Z" fill="#DDE1F1"/>
<path d="M104.454 16.0033C104.454 11.8868 107.325 8.87109 111.227 8.87109C114.751 8.87109 117.388 11.278 117.916 14.7574H115.134C114.691 12.794 113.191 11.4675 111.231 11.4675C108.889 11.4675 107.204 13.3867 107.204 16.0033C107.204 18.6199 108.893 20.5188 111.231 20.5188C113.195 20.5188 114.691 19.1883 115.134 17.2289H117.916C117.388 20.7325 114.751 23.1395 111.227 23.1395C107.325 23.1395 104.454 20.1197 104.454 16.0073V16.0033Z" fill="#DDE1F1"/>
<path d="M130.468 9.14453H133.084V14.7567H140.894V9.14453H143.506V22.8605H140.894V17.2282H133.084V22.8605H130.468V9.14453Z" fill="#DDE1F1"/>
<path d="M156.541 9.14453H159.154V20.3891H166.963V22.8565H156.541V9.14453Z" fill="#DDE1F1"/>
<path d="M179.094 9.14453H181.706V22.8605H179.094V9.14453Z" fill="#DDE1F1"/>
<path d="M194.092 16.0033C194.092 11.8868 196.963 8.87109 200.865 8.87109C203.821 8.87109 206.187 10.6007 207.175 13.1972L204.155 13.2375C203.417 12.1408 202.236 11.4635 200.861 11.4635C198.519 11.4635 196.834 13.3826 196.834 15.9992C196.834 18.6158 198.519 20.5148 200.861 20.5148C202.764 20.5148 204.236 19.2246 204.744 17.37H200.861V14.8986H207.55C207.614 15.2574 207.635 15.6162 207.635 15.9952C207.635 16.3984 207.614 16.8378 207.55 17.2208C207.026 20.7244 204.385 23.1314 200.861 23.1314C196.959 23.1314 194.088 20.1116 194.088 15.9992L194.092 16.0033Z" fill="#DDE1F1"/>
<path d="M220.105 9.14453H222.718V14.7567H230.528V9.14453H233.14V22.8605H230.528V17.2282H222.718V22.8605H220.105V9.14453Z" fill="#DDE1F1"/>
<path d="M250.46 11.6159H245.247V9.14844H258.286V11.6159H253.077V22.8604H250.46V11.6159Z" fill="#DDE1F1"/>
<path d="M272.002 22.8566L277.868 9.14062H278.888L285.085 22.8566H284.021L282.368 18.9862H274.651L273.042 22.8566H271.998H272.002ZM274.913 18.2282H282.15L278.413 10.0558L274.913 18.2282Z" fill="#DDE1F1"/>
<path d="M293.838 9.14453H294.858V22.8565H293.838V9.14453Z" fill="#DDE1F1"/>
<defs>
<linearGradient id="paint0_linear_1331_2822" x1="-3.42699" y1="28.5718" x2="14.857" y2="10.2838" gradientUnits="userSpaceOnUse">
<stop stop-color="#FFE360"/>
<stop offset="0.3" stop-color="#FAAA4A"/>
<stop offset="1" stop-color="#F58766"/>
</linearGradient>
<linearGradient id="paint1_linear_1331_2822" x1="-4.572" y1="13.716" x2="13.716" y2="-4.572" gradientUnits="userSpaceOnUse">
<stop stop-color="#FFE360"/>
<stop offset="0.3" stop-color="#FAAA4A"/>
<stop offset="1" stop-color="#F58766"/>
</linearGradient>
<linearGradient id="paint2_linear_1331_2822" x1="-1.14099" y1="21.7138" x2="7.99899" y2="12.5698" gradientUnits="userSpaceOnUse">
<stop stop-color="#CA8066"/>
<stop offset="1" stop-color="#C96E69"/>
</linearGradient>
</defs>
</svg>
